# xmcd
#
# Track frame offsets: 
#        150
#        16585
#        32065
#        44850
#        59232
#        75385
#        87895
#        99967
#        112520
#        128685
#        138015
#        154082
#        169872
#        180052
#
# Disc length: 2718 seconds
#
# Revision: 2
# Processed by: cddbd v1.5.2PL0 Copyright (c) Steve Scherf et al.
# Submitted via: ExactAudioCopyFreeDBPlugin 1.0
#
DISCID=9b0a9c0e
DTITLE=Various Artist - The Sound of Philadelphia [Goldies]
DYEAR=2001
DGENRE=Soul
TTITLE0=The Three Degrees and Orchestra - T.S.O.P. (The Sound of Philade
TTITLE0=lphia)
TTITLE1=The Trammps - Zing Went The Strings Of My Heart
TTITLE2=The O'Jays - Branded Bad
TTITLE3=Patti LaBelle and The Blue Belles - You'll Never Walk Alone
TTITLE4=Harold Melvin and The Blue Notes - The Love I Lost
TTITLE5=Archie Bell and The Drells - Tighten Up
TTITLE6=The Tymes - You Little Trustmaker
TTITLE7=Jerry Butler - Hey, Western Union Man
TTITLE8=The Three Degrees - I'm Doin' Fine Now
TTITLE9=The O'Jays - I Should Be Your Lover
TTITLE10=Harold Melvin and The Blue Notes - Wake Up Everybody
TTITLE11=The Three Degrees - Take Good Care of Yourself
TTITLE12=The O'Jays - I've Got the Groove
TTITLE13=Billy Paul - Me and Mrs. Jones
EXTD=
EXTT0=
EXTT1=
EXTT2=
EXTT3=
EXTT4=
EXTT5=
EXTT6=
EXTT7=
EXTT8=
EXTT9=
EXTT10=
EXTT11=
EXTT12=
EXTT13=
PLAYORDER=
